<?xml version="1.0" encoding="UTF-8" standalone="no"?>
<!-- Created with Inkscape (http://www.inkscape.org/) -->

<svg
   xmlns:dc="http://purl.org/dc/elements/1.1/"
   xmlns:cc="http://creativecommons.org/ns#"
   xmlns:rdf="http://www.w3.org/1999/02/22-rdf-syntax-ns#"
   xmlns:svg="http://www.w3.org/2000/svg"
   xmlns="http://www.w3.org/2000/svg"
   xmlns:sodipodi="http://sodipodi.sourceforge.net/DTD/sodipodi-0.dtd"
   xmlns:inkscape="http://www.inkscape.org/namespaces/inkscape"
   id="svg2"
   version="1.1"
   inkscape:version="0.48.4 r9939"
   width="425.06232"
   height="183.15421"
   xml:space="preserve"
   sodipodi:docname="birdsong.svg"><metadata
     id="metadata8"><rdf:RDF><cc:Work
         rdf:about=""><dc:format>image/svg+xml</dc:format><dc:type
           rdf:resource="http://purl.org/dc/dcmitype/StillImage" /><dc:title /></cc:Work></rdf:RDF></metadata><defs
     id="defs6"><clipPath
       clipPathUnits="userSpaceOnUse"
       id="clipPath32"><path
         d="m 1224,5347.35 0,-1497.75 3308.7,0 0,1497.75 -3308.7,0 z"
         id="path34"
         inkscape:connector-curvature="0" /></clipPath></defs><sodipodi:namedview
     pagecolor="#ffffff"
     bordercolor="#666666"
     borderopacity="1"
     objecttolerance="10"
     gridtolerance="10"
     guidetolerance="10"
     inkscape:pageopacity="0"
     inkscape:pageshadow="2"
     inkscape:window-width="1719"
     inkscape:window-height="1116"
     id="namedview4"
     showgrid="false"
     fit-margin-top="3"
     fit-margin-left="3"
     fit-margin-right="3"
     fit-margin-bottom="3"
     inkscape:zoom="1.9070707"
     inkscape:cx="230.06615"
     inkscape:cy="47.567683"
     inkscape:window-x="2002"
     inkscape:window-y="1"
     inkscape:window-maximized="0"
     inkscape:current-layer="g10" /><g
     id="g10"
     inkscape:groupmode="layer"
     inkscape:label="fiete2007"
     transform="matrix(1.25,0,0,-1.25,-149.35409,653.35733)"><path
       inkscape:connector-curvature="0"
       id="path56"
       style="fill:#ffffff;fill-opacity:1;fill-rule:nonzero;stroke:none"
       d="m 355.298,501.194 c 0,-4.749 -6.492,-8.599 -14.498,-8.599 -8.007,0 -14.498,3.85 -14.498,8.599 0,4.748 6.491,8.598 14.498,8.598 8.006,0 14.498,-3.85 14.498,-8.598" /><path
       inkscape:connector-curvature="0"
       id="path66"
       style="fill:#ffffff;fill-opacity:1;fill-rule:nonzero;stroke:none"
       d="m 355.298,450.156 c 0,-4.749 -6.491,-8.598 -14.497,-8.598 -8.007,0 -14.499,3.849 -14.499,8.598 0,4.749 6.492,8.598 14.499,8.598 8.006,0 14.497,-3.849 14.497,-8.598" /><path
       inkscape:connector-curvature="0"
       id="path106"
       style="fill:none;stroke:#0000ff;stroke-width:1.11141002;stroke-linecap:butt;stroke-linejoin:miter;stroke-miterlimit:10;stroke-opacity:1;stroke-dasharray:none"
       d="m 340.767,492.634 0,-32.448" /><path
       inkscape:connector-curvature="0"
       id="path108"
       style="fill:#0000ff;fill-opacity:1;fill-rule:nonzero;stroke:none"
       d="m 340.767,458.744 c -0.703,1.716 -1.902,3.844 -3.171,5.164 l 3.171,-1.039 3.171,1.039 c -1.269,-1.32 -2.468,-3.448 -3.171,-5.164" /><path
       inkscape:connector-curvature="0"
       id="path110"
       style="fill:none;stroke:#0000ff;stroke-width:1.11141002;stroke-linecap:butt;stroke-linejoin:miter;stroke-miterlimit:10;stroke-opacity:1;stroke-dasharray:none"
       d="m 340.767,441.529 0,-7.693" /><path
       inkscape:connector-curvature="0"
       id="path112"
       style="fill:#0000ff;fill-opacity:1;fill-rule:nonzero;stroke:none"
       d="m 340.767,430.853 c -0.703,1.715 -1.902,3.844 -3.171,5.163 l 3.171,-1.039 3.171,1.039 c -1.269,-1.319 -2.468,-3.448 -3.171,-5.163" /><path
       inkscape:connector-curvature="0"
       id="path114"
       style="fill:none;stroke:#000000;stroke-width:0.83355701;stroke-linecap:butt;stroke-linejoin:miter;stroke-miterlimit:10;stroke-opacity:1;stroke-dasharray:none"
       d="m 355.298,501.194 20.445,0" /><path
       inkscape:connector-curvature="0"
       id="path116"
       style="fill:#000000;fill-opacity:1;fill-rule:nonzero;stroke:none"
       d="m 378.761,501.194 c -1.42,-0.527 -3.182,-1.426 -4.274,-2.378 l 0.86,2.378 -0.86,2.378 c 1.092,-0.952 2.854,-1.852 4.274,-2.378" /><path
       inkscape:connector-curvature="0"
       id="path124"
       style="fill:none;stroke:#00ff00;stroke-width:1.11141002;stroke-linecap:butt;stroke-linejoin:miter;stroke-miterlimit:10;stroke-opacity:1;stroke-dasharray:none"
       d="m 392.421,467.199 0,-5.685" /><path
       inkscape:connector-curvature="0"
       id="path126"
       style="fill:#00ff00;fill-opacity:1;fill-rule:nonzero;stroke:none"
       d="m 392.421,459.194 c -0.701,1.715 -1.901,3.844 -3.17,5.163 l 3.17,-1.039 3.172,1.039 c -1.27,-1.319 -2.469,-3.448 -3.172,-5.163" /><path
       inkscape:connector-curvature="0"
       id="path128"
       style="fill:none;stroke:#00ff00;stroke-width:0.55570501;stroke-linecap:butt;stroke-linejoin:miter;stroke-miterlimit:4;stroke-opacity:1;stroke-dasharray:none"
       d="m 392.421,459.194 c -0.701,1.715 -1.901,3.844 -3.17,5.163 l 3.17,-1.039 3.172,1.039 c -1.27,-1.319 -2.469,-3.448 -3.172,-5.163 z" /><path
       inkscape:connector-curvature="0"
       id="path130"
       style="fill:none;stroke:#00ff00;stroke-width:1.11141002;stroke-linecap:butt;stroke-linejoin:miter;stroke-miterlimit:10;stroke-opacity:1;stroke-dasharray:none"
       d="m 392.421,493.813 0,-7.64" /><path
       inkscape:connector-curvature="0"
       id="path132"
       style="fill:#00ff00;fill-opacity:1;fill-rule:nonzero;stroke:none"
       d="m 390.332,486.173 c 0,-1.154 0.936,-2.089 2.089,-2.089 1.154,0 2.09,0.935 2.09,2.089 0,1.154 -0.936,2.089 -2.09,2.089 -1.153,0 -2.089,-0.935 -2.089,-2.089" /><path
       inkscape:connector-curvature="0"
       id="path134"
       style="fill:none;stroke:#00ff00;stroke-width:1.11141002;stroke-linecap:butt;stroke-linejoin:miter;stroke-miterlimit:10;stroke-opacity:1;stroke-dasharray:none"
       d="m 357.553,449.981 20.968,0" /><path
       inkscape:connector-curvature="0"
       id="path136"
       style="fill:#00ff00;fill-opacity:1;fill-rule:nonzero;stroke:none"
       d="m 355.854,449.981 c 1.786,0.703 4.003,1.902 5.376,3.171 l -1.082,-3.171 1.082,-3.17 c -1.373,1.269 -3.59,2.469 -5.376,3.17" /><path
       inkscape:connector-curvature="0"
       id="path138"
       style="fill:#ffffff;fill-opacity:1;fill-rule:evenodd;stroke:none"
       d="m 271.642,450.449 c 0,-5.09 -4.121,-9.223 -9.199,-9.223 -5.077,0 -9.198,4.133 -9.198,9.223 0,5.091 4.121,9.223 9.198,9.223 5.078,0 9.199,-4.132 9.199,-9.223 l 0,0" /><path
       inkscape:connector-curvature="0"
       id="path140"
       style="fill:none;stroke:#00ff00;stroke-width:0.55570501;stroke-linecap:butt;stroke-linejoin:miter;stroke-miterlimit:10;stroke-opacity:1;stroke-dasharray:none"
       d="m 271.642,450.449 c 0,-5.09 -4.121,-9.223 -9.199,-9.223 -5.077,0 -9.198,4.133 -9.198,9.223 0,5.091 4.121,9.223 9.198,9.223 5.078,0 9.199,-4.132 9.199,-9.223 l 0,0 z" /><path
       inkscape:connector-curvature="0"
       id="path142"
       style="fill:#94ff7f;fill-opacity:1;fill-rule:nonzero;stroke:none"
       d="m 271.642,450.449 c 0,-5.09 -4.121,-9.223 -9.199,-9.223 -5.077,0 -9.198,4.133 -9.198,9.223 0,5.091 4.121,9.223 9.198,9.223 5.078,0 9.199,-4.132 9.199,-9.223 l 0,0" /><path
       inkscape:connector-curvature="0"
       id="path144"
       style="fill:none;stroke:#00ff00;stroke-width:0.819942;stroke-linecap:butt;stroke-linejoin:miter;stroke-miterlimit:10;stroke-opacity:1;stroke-dasharray:none"
       d="m 271.642,450.449 c 0,-5.09 -4.121,-9.223 -9.199,-9.223 -5.077,0 -9.198,4.133 -9.198,9.223 0,5.091 4.121,9.223 9.198,9.223 5.078,0 9.199,-4.132 9.199,-9.223 l 0,0 z" /><path
       inkscape:connector-curvature="0"
       id="path146"
       style="fill:none;stroke:#000000;stroke-width:0.89368403;stroke-linecap:butt;stroke-linejoin:miter;stroke-miterlimit:10;stroke-opacity:1;stroke-dasharray:none"
       d="m 221.122,512.667 c 5.89,-0.523 14.476,-2.762 18.966,-4.835 4.491,-2.075 17.013,-9.8 21.367,-13.338 4.356,-3.539 12.25,-11.569 15.244,-15.108 2.994,-3.538 6.942,-10.752 8.165,-13.746 1.227,-2.994 2.859,-8.031 3.131,-11.705 0.273,-3.675 0.273,-6.805 -0.816,-11.024 -1.088,-4.219 -3.233,-6.873 -5.307,-8.302 -2.143,-1.475 -3.268,-1.498 -6.535,-2.178 -3.266,-0.681 -9.798,0.953 -14.154,2.042 -4.355,1.088 -14.767,5.036 -19.054,7.349 -4.177,2.255 -9.39,5.989 -9.39,5.989 0,0 0.339,-5.104 -0.069,-7.826 -0.399,-2.667 -0.786,-4.784 -2.245,-7.01 -1.43,-2.178 -4.084,-2.993 -6.942,-3.674 -2.857,-0.681 -6.533,-0.817 -9.255,-0.136 -2.722,0.68 -6.669,4.219 -6.669,4.219 0,0 -0.754,-3.702 -2.109,-5.444 -1.43,-1.837 -2.995,-2.519 -5.24,-3.063 -2.199,-0.532 -4.424,-1.02 -7.35,0.068 -2.884,1.074 -5.853,2.859 -8.846,5.037 -2.994,2.177 -6.669,6.26 -11.977,9.662 -5.308,3.403 -9.255,6.261 -11.705,7.214 -2.45,0.953 -11.705,4.627 -15.108,5.988 -3.402,1.361 -5.171,2.178 -5.171,2.178 0,0 0.408,2.314 1.633,4.219 1.225,1.906 2.858,3.267 2.858,3.267 l 10.072,-5.172 c 0,0 5.988,2.45 8.438,2.313 2.45,-0.135 6.125,0 9.799,-1.089 3.675,-1.088 9.255,-3.13 10.617,-4.218 1.36,-1.089 1.632,-3.811 2.721,-6.262 1.068,-2.401 2.314,-4.082 2.314,-4.082 0,0 1.498,0.408 2.45,1.088 0.952,0.681 -0.817,2.178 -1.089,3.812 -0.817,1.769 -1.766,2.34 -1.225,6.396 0.545,4.083 2.314,7.214 4.356,8.847 2.04,1.633 10.615,1.769 10.615,1.769 0,0 -12.248,6.533 -14.29,8.03 -2.042,1.497 -6.125,5.172 -7.077,5.989 -0.953,0.816 -2.587,4.491 -2.45,6.669 0.135,2.177 1.905,8.03 3.946,11.024 1.96,2.874 7.894,8.438 11.025,10.208 3.13,1.769 8.71,4.15 11.841,4.627 3.131,0.477 8.711,0.722 14.515,0.208 l 0,0 z" /><path
       inkscape:connector-curvature="0"
       id="path148"
       style="fill:#888888;fill-opacity:1;fill-rule:evenodd;stroke:none"
       d="m 272.49,468.774 c 0,-2.11 -1.715,-3.823 -3.825,-3.823 -2.11,0 -3.824,1.713 -3.824,3.823 0,2.111 1.714,3.823 3.824,3.823 2.11,0 3.825,-1.712 3.825,-3.823 l 0,0" /><path
       inkscape:connector-curvature="0"
       id="path150"
       style="fill:#94ff7f;fill-opacity:1;fill-rule:nonzero;stroke:none"
       d="m 272.49,468.775 c 0,-2.111 -1.715,-3.824 -3.825,-3.824 -2.11,0 -3.824,1.713 -3.824,3.824 0,2.11 1.714,3.822 3.824,3.822 2.11,0 3.825,-1.712 3.825,-3.822 l 0,0" /><path
       inkscape:connector-curvature="0"
       id="path152"
       style="fill:none;stroke:#00ff00;stroke-width:0.864676;stroke-linecap:butt;stroke-linejoin:miter;stroke-miterlimit:10;stroke-opacity:1;stroke-dasharray:none"
       d="m 272.49,468.775 c 0,-2.111 -1.715,-3.824 -3.825,-3.824 -2.11,0 -3.824,1.713 -3.824,3.824 0,2.11 1.714,3.822 3.824,3.822 2.11,0 3.825,-1.712 3.825,-3.822 l 0,0 z" /><path
       inkscape:connector-curvature="0"
       id="path154"
       style="fill:#ffffff;fill-opacity:1;fill-rule:evenodd;stroke:none"
       d="m 227.703,445.633 c 0,-1.653 -2.744,-2.994 -6.125,-2.994 -3.381,0 -6.125,1.341 -6.125,2.994 0,1.653 2.744,2.994 6.125,2.994 3.381,0 6.125,-1.341 6.125,-2.994 l 0,0" /><path
       inkscape:connector-curvature="0"
       id="path156"
       style="fill:none;stroke:#0000ff;stroke-width:0.89368403;stroke-linecap:butt;stroke-linejoin:miter;stroke-miterlimit:10;stroke-opacity:1;stroke-dasharray:none"
       d="m 162.945,452.561 c -0.172,-0.962 -3.431,-1.188 -7.278,-0.504 -3.846,0.684 -6.829,2.019 -6.658,2.981 0.17,0.961 3.431,1.187 7.277,0.503 3.846,-0.683 6.83,-2.019 6.659,-2.98 l 0,0 z" /><path
       inkscape:connector-curvature="0"
       id="path158"
       style="fill:none;stroke:#000000;stroke-width:0.89368403;stroke-linecap:butt;stroke-linejoin:miter;stroke-miterlimit:10;stroke-opacity:1;stroke-dasharray:none"
       d="m 226.894,487.025 c 1.306,-2.706 1.843,-5.154 1.201,-5.464 -0.643,-0.311 -2.225,1.634 -3.531,4.341 -1.306,2.706 -1.844,5.155 -1.201,5.465 0.642,0.31 2.224,-1.635 3.531,-4.342 l 0,0 z" /><path
       inkscape:connector-curvature="0"
       id="path160"
       style="fill:none;stroke:#000000;stroke-width:0.89368403;stroke-linecap:butt;stroke-linejoin:miter;stroke-miterlimit:10;stroke-opacity:1;stroke-dasharray:none"
       d="m 166.048,486.328 c 0,0 5.581,7.349 7.077,8.438 1.498,1.089 3.267,1.633 4.355,0.68 1.09,-0.952 1.226,-3.402 0.545,-4.355 -0.68,-0.953 -2.586,-3.539 -4.219,-4.491 -1.633,-0.953 -5.988,-2.586 -5.988,-2.586 0,0 5.035,0 6.532,-0.137 1.498,-0.135 3.267,-0.544 3.811,-1.36 0.545,-0.817 0.545,-1.77 -0.953,-2.586 -1.496,-0.817 -3.946,0.408 -5.579,0.544 -1.634,0.136 -4.084,0.545 -4.084,0.545 0,0 1.906,-3.267 3.13,-3.811 1.225,-0.545 3.131,-1.089 4.9,-1.634 1.77,-0.544 4.083,-0.544 5.308,-2.314 1.225,-1.769 1.905,-3.81 1.362,-5.172 -0.545,-1.36 -1.498,-1.633 -3.675,-0.407 -2.178,1.225 -1.634,2.041 -4.492,3.674 -2.858,1.634 -4.764,2.586 -6.533,2.314 -1.769,-0.272 0.273,-1.633 2.45,-3.266 2.178,-1.634 7.078,-3.675 7.759,-5.445 0.679,-1.768 -2.587,-2.994 -4.084,-2.721 -1.497,0.272 -2.995,2.177 -4.763,4.491 -1.77,2.314 -4.764,7.621 -4.764,7.621 0,0 1.905,-8.029 0.68,-10.888 -1.225,-2.858 -5.444,-4.627 -8.439,-2.722 -2.993,1.906 2.723,13.339 2.723,13.339 0,0 -1.361,0.952 -2.586,0 -1.225,-0.954 -5.035,-7.486 -8.03,-6.942 -2.995,0.545 -3.675,3.13 -1.905,5.58 1.769,2.45 10.887,3.539 10.887,3.539 0,0 -14.426,-0.273 -14.971,0.544 -0.544,0.817 0.409,3.403 1.361,3.811 0.953,0.409 14.291,-2.45 14.291,-2.45 0,0 -11.705,4.9 -12.793,6.125 -1.09,1.225 -1.498,3.539 -0.545,4.355 0.953,0.817 5.444,-1.905 6.805,-2.858 1.361,-0.953 5.852,-4.628 9.391,-4.355 3.539,0.272 0.953,0.953 0.953,0.953 0,0 -9.799,6.124 -10.752,7.894 -0.953,1.769 -0.545,4.763 1.361,5.444 1.905,0.68 5.716,-3.267 7.077,-5.717 1.361,-2.45 1.77,-4.627 3.267,-4.627 1.497,0 -0.816,6.941 -1.497,8.846 -0.681,1.906 -0.545,5.989 0.952,6.397 1.498,0.409 3.811,-0.272 3.811,-2.041 0,-1.77 -0.136,-12.249 -0.136,-12.249 l 0,0 z" /><path
       inkscape:connector-curvature="0"
       id="path162"
       style="fill:none;stroke:#0000ff;stroke-width:1.87667012;stroke-linecap:butt;stroke-linejoin:miter;stroke-miterlimit:10;stroke-opacity:1;stroke-dasharray:none"
       d="m 204.702,506.879 c 0,0 -3.404,-5.308 -4.764,-7.622 -1.361,-2.314 -4.219,-8.302 -4.219,-8.302" /><path
       inkscape:connector-curvature="0"
       id="path164"
       style="fill:#0000ff;fill-opacity:1;fill-rule:evenodd;stroke:none"
       d="m 197.536,491.44 -2.963,-2.676 0.524,3.959 c 0.442,-0.909 1.429,-1.424 2.439,-1.283 l 0,0" /><path
       inkscape:connector-curvature="0"
       id="path166"
       style="fill:none;stroke:#0000ff;stroke-width:1.78731;stroke-linecap:butt;stroke-linejoin:miter;stroke-miterlimit:10;stroke-opacity:1;stroke-dasharray:none"
       d="m 198.577,481.02 c 5.58,-3.675 9.391,-8.303 8.982,-13.883 -0.409,-5.58 -3.266,-13.882 -5.988,-17.421 -2.722,-3.539 -8.439,-9.527 -13.475,-8.166 -5.035,1.361 -8.301,2.041 -11.84,3.675 -3.539,1.633 -11.433,5.988 -11.433,5.988" /><path
       inkscape:connector-curvature="0"
       id="path168"
       style="fill:#0000ff;fill-opacity:1;fill-rule:evenodd;stroke:none"
       d="m 165.308,449.488 -2.585,2.789 3.776,-0.45 c -0.86,-0.432 -1.338,-1.378 -1.191,-2.339 l 0,0" /><path
       inkscape:connector-curvature="0"
       id="path170"
       style="fill:none;stroke:#0000ff;stroke-width:1.78731;stroke-linecap:butt;stroke-linejoin:miter;stroke-miterlimit:10;stroke-opacity:1;stroke-dasharray:none"
       d="m 149.036,455.296 c 0,0 -4.765,3.403 -8.031,3.539 -3.266,0.136 -5.716,-2.45 -6.669,-4.628 -0.952,-2.177 -1.905,-4.764 -1.905,-4.764" /><path
       inkscape:connector-curvature="0"
       id="path172"
       style="fill:#0000ff;fill-opacity:1;fill-rule:evenodd;stroke:none"
       d="m 134.112,450.065 -2.573,-2.8 0.145,3.8 c 0.5,-0.822 1.482,-1.223 2.428,-1 l 0,0" /><path
       inkscape:connector-curvature="0"
       id="path174"
       style="fill:none;stroke:#000000;stroke-width:0.55570501;stroke-linecap:butt;stroke-linejoin:miter;stroke-miterlimit:10;stroke-opacity:1;stroke-dasharray:none"
       d="m 218.584,464.279 c 0,0 1.428,14.155 1.088,20.687 -0.34,6.542 -5.444,19.191 -5.444,19.191" /><path
       inkscape:connector-curvature="0"
       id="path176"
       style="fill:#000000;fill-opacity:1;fill-rule:evenodd;stroke:none"
       d="m 213.21,502.683 0.497,3.769 2.063,-3.193 c -0.881,0.386 -1.915,0.15 -2.56,-0.576 l 0,0" /><path
       inkscape:connector-curvature="0"
       id="path178"
       style="fill:none;stroke:#000000;stroke-width:0.55570501;stroke-linecap:butt;stroke-linejoin:miter;stroke-miterlimit:10;stroke-opacity:1;stroke-dasharray:none"
       d="m 220.353,463.734 c 0,0 2.34,3.864 3.946,7.078 1.634,3.267 2.586,8.166 2.586,8.166" /><path
       inkscape:connector-curvature="0"
       id="path180"
       style="fill:#000000;fill-opacity:1;fill-rule:evenodd;stroke:none"
       d="m 225.229,478.293 2.466,2.896 -0.002,-3.803 c -0.531,0.803 -1.527,1.166 -2.464,0.907 l 0,0" /><path
       inkscape:connector-curvature="0"
       id="path182"
       style="fill:none;stroke:#000000;stroke-width:0.55570501;stroke-linecap:butt;stroke-linejoin:miter;stroke-miterlimit:10;stroke-opacity:1;stroke-dasharray:none"
       d="m 223.347,491.363 c 0,0 -1.497,6.125 -2.314,8.03 -0.866,2.021 -2.858,5.444 -2.858,5.444" /><path
       inkscape:connector-curvature="0"
       id="path184"
       style="fill:#000000;fill-opacity:1;fill-rule:evenodd;stroke:none"
       d="m 217.539,503.162 -0.421,3.779 2.77,-2.605 c -0.949,0.163 -1.895,-0.314 -2.349,-1.174 l 0,0" /><path
       inkscape:connector-curvature="0"
       id="path186"
       style="fill:none;stroke:#000000;stroke-width:0.55570501;stroke-linecap:butt;stroke-linejoin:miter;stroke-miterlimit:10;stroke-opacity:1;stroke-dasharray:none"
       d="m 219.264,508.104 c 0,0 10.548,-5.658 15.379,-9.8 4.764,-4.083 14.154,-14.358 17.693,-20.823 3.57,-6.524 4.628,-8.983 5.173,-10.48 0.544,-1.497 1.633,-5.308 1.633,-5.308" /><path
       inkscape:connector-curvature="0"
       id="path188"
       style="fill:#000000;fill-opacity:1;fill-rule:evenodd;stroke:none"
       d="m 260.027,463.252 -0.163,-3.8 -2.337,3 c 0.912,-0.307 1.92,0.019 2.5,0.8 l 0,0" /><path
       inkscape:connector-curvature="0"
       id="path190"
       style="fill:none;stroke:#00ff00;stroke-width:1.66711009;stroke-linecap:butt;stroke-linejoin:miter;stroke-miterlimit:10;stroke-opacity:1;stroke-dasharray:none"
       d="m 265.267,471.084 c 0,0 -21.233,1.354 -28.446,1.77 -7.077,0.407 -17.557,2.994 -21.776,4.219 -4.219,1.224 -14.019,4.763 -14.019,4.763" /><path
       inkscape:connector-curvature="0"
       id="path192"
       style="fill:#00ff00;fill-opacity:1;fill-rule:evenodd;stroke:none"
       d="m 202.53,479.68 -3.742,2.852 4.77,0.161 c -0.984,-0.675 -1.394,-1.893 -1.028,-3.013 l 0,0" /><path
       inkscape:connector-curvature="0"
       id="path194"
       style="fill:none;stroke:#00ff00;stroke-width:1.66711009;stroke-linecap:butt;stroke-linejoin:miter;stroke-miterlimit:10;stroke-opacity:1;stroke-dasharray:none"
       d="m 224.571,448.355 c 0,0 11.297,9.8 16.061,12.385 4.764,2.587 12.522,5.581 14.972,6.125 2.449,0.544 7.076,1.497 7.076,1.497" /><path
       inkscape:connector-curvature="0"
       id="path196"
       style="fill:#00ff00;fill-opacity:1;fill-rule:evenodd;stroke:none"
       d="m 261.217,469.396 3.764,-0.536 -3.215,-2.031 c 0.395,0.877 0.17,1.914 -0.549,2.567 l 0,0" /><path
       inkscape:connector-curvature="0"
       id="path198"
       style="fill:none;stroke:#00ff00;stroke-width:1.66711009;stroke-linecap:butt;stroke-linejoin:miter;stroke-miterlimit:10;stroke-opacity:1;stroke-dasharray:none"
       d="m 253.561,453.935 c 0,0 -6.845,1.042 -12.248,-0.441 -5.054,-1.387 -5.325,-1.17 -12.641,-5.412" /><path
       inkscape:connector-curvature="0"
       id="path222"
       style="fill:none;stroke:#0000ff;stroke-width:0.89368403;stroke-linecap:butt;stroke-linejoin:miter;stroke-miterlimit:10;stroke-opacity:1;stroke-dasharray:none"
       d="m 199.203,483.425 c 0,-3.122 -2.611,-5.652 -5.832,-5.652 -3.22,0 -5.831,2.53 -5.831,5.652 0,3.121 2.611,5.652 5.831,5.652 3.221,0 5.832,-2.531 5.832,-5.652 z" /><path
       inkscape:connector-curvature="0"
       id="path224"
       style="fill:#94ff7f;fill-opacity:1;fill-rule:nonzero;stroke:none"
       d="m 228.272,445.27 c 0,-1.745 -3.234,-3.159 -7.223,-3.159 -3.988,0 -7.221,1.414 -7.221,3.159 0,1.745 3.233,3.16 7.221,3.16 3.989,0 7.223,-1.415 7.223,-3.16" /><path
       inkscape:connector-curvature="0"
       id="path226"
       style="fill:none;stroke:#00ff00;stroke-width:0.89368403;stroke-linecap:butt;stroke-linejoin:miter;stroke-miterlimit:10;stroke-opacity:1;stroke-dasharray:none"
       d="m 228.272,445.27 c 0,-1.745 -3.234,-3.159 -7.223,-3.159 -3.988,0 -7.221,1.414 -7.221,3.159 0,1.745 3.233,3.16 7.221,3.16 3.989,0 7.223,-1.415 7.223,-3.16 z" /><path
       inkscape:connector-curvature="0"
       id="path228"
       style="fill:none;stroke:#0000ff;stroke-width:0.89368403;stroke-linecap:butt;stroke-linejoin:miter;stroke-miterlimit:10;stroke-opacity:1;stroke-dasharray:none"
       d="m 220.086,508.007 c 0,-1.121 -3.739,-2.031 -8.35,-2.031 -4.612,0 -8.35,0.91 -8.35,2.031 0,1.122 3.738,2.031 8.35,2.031 4.611,0 8.35,-0.909 8.35,-2.031 z" /><path
       inkscape:connector-curvature="0"
       id="path230"
       style="fill:none;stroke:#000000;stroke-width:0.89368403;stroke-linecap:butt;stroke-linejoin:miter;stroke-miterlimit:10;stroke-opacity:1;stroke-dasharray:none"
       d="m 222.942,460.549 c 0,-2.028 -1.835,-3.673 -4.098,-3.673 -2.263,0 -4.098,1.645 -4.098,3.673 0,2.03 1.835,3.674 4.098,3.674 2.263,0 4.098,-1.644 4.098,-3.674 z" /><path
       inkscape:connector-curvature="0"
       id="path232"
       style="fill:#00ff00;fill-opacity:1;fill-rule:evenodd;stroke:none"
       d="m 232.229,448.611 c 0,-1.129 -0.884,-2.043 -1.974,-2.043 -1.088,0 -1.971,0.914 -1.971,2.043 0,1.127 0.883,2.042 1.971,2.042 1.09,0 1.974,-0.915 1.974,-2.042" /><path
       inkscape:connector-curvature="0"
       id="path234"
       style="fill:none;stroke:#00ff00;stroke-width:0.55570501;stroke-linecap:butt;stroke-linejoin:miter;stroke-miterlimit:50;stroke-opacity:1;stroke-dasharray:none"
       d="m 232.229,448.611 c 0,-1.129 -0.884,-2.043 -1.974,-2.043 -1.088,0 -1.971,0.914 -1.971,2.043 0,1.127 0.883,2.042 1.971,2.042 1.09,0 1.974,-0.915 1.974,-2.042 z" /><text
       xml:space="preserve"
       style="font-size:32px;font-style:normal;font-variant:normal;font-weight:normal;font-stretch:normal;line-height:125%;letter-spacing:0px;word-spacing:0px;fill:#000000;fill-opacity:1;stroke:none;font-family:Arial;-inkscape-font-specification:Arial"
       x="202.97682"
       y="-515.04407"
       id="text3253"
       sodipodi:linespacing="125%"
       transform="scale(1,-1)"><tspan
         sodipodi:role="line"
         id="tspan3255"
         x="202.97682"
         y="-515.04407"
         style="font-size:7.19999981px">HVC</tspan></text>
<text
       xml:space="preserve"
       style="font-size:32px;font-style:normal;font-variant:normal;font-weight:normal;font-stretch:normal;line-height:125%;letter-spacing:0px;word-spacing:0px;fill:#000000;fill-opacity:1;stroke:none;font-family:Arial;-inkscape-font-specification:Arial"
       x="229.04016"
       y="-483.69452"
       id="text3253-1"
       sodipodi:linespacing="125%"
       transform="scale(1,-1)"><tspan
         sodipodi:role="line"
         id="tspan3255-8"
         x="229.04016"
         y="-483.69452"
         style="font-size:7.19999981px">Nlf</tspan></text>
<text
       xml:space="preserve"
       style="font-size:32px;font-style:normal;font-variant:normal;font-weight:normal;font-stretch:normal;line-height:125%;letter-spacing:0px;word-spacing:0px;fill:#000000;fill-opacity:1;stroke:none;font-family:Arial;-inkscape-font-specification:Arial"
       x="255.1432"
       y="-474.49908"
       id="text3253-19"
       sodipodi:linespacing="125%"
       transform="scale(1,-1)"><tspan
         sodipodi:role="line"
         id="tspan3255-87"
         x="255.1432"
         y="-474.49908"
         style="font-size:7.19999981px">LMAN</tspan></text>
<text
       xml:space="preserve"
       style="font-size:32px;font-style:normal;font-variant:normal;font-weight:normal;font-stretch:normal;line-height:125%;letter-spacing:0px;word-spacing:0px;fill:#000000;fill-opacity:1;stroke:none;font-family:Arial;-inkscape-font-specification:Arial"
       x="210.05614"
       y="-450.76907"
       id="text3253-6"
       sodipodi:linespacing="125%"
       transform="scale(1,-1)"><tspan
         sodipodi:role="line"
         id="tspan3255-2"
         x="210.05614"
         y="-450.76907"
         style="font-size:7.19999981px">UVA</tspan></text>
<text
       xml:space="preserve"
       style="font-size:32px;font-style:normal;font-variant:normal;font-weight:normal;font-stretch:normal;line-height:125%;letter-spacing:0px;word-spacing:0px;fill:#000000;fill-opacity:1;stroke:none;font-family:Arial;-inkscape-font-specification:Arial"
       x="213.61563"
       y="-435.34457"
       id="text3253-5"
       sodipodi:linespacing="125%"
       transform="scale(1,-1)"><tspan
         sodipodi:role="line"
         id="tspan3255-3"
         x="213.61563"
         y="-435.34457"
         style="font-size:7.19999981px">DLM</tspan></text>
<text
       xml:space="preserve"
       style="font-size:32px;font-style:normal;font-variant:normal;font-weight:normal;font-stretch:normal;line-height:125%;letter-spacing:0px;word-spacing:0px;fill:#000000;fill-opacity:1;stroke:none;font-family:Arial;-inkscape-font-specification:Arial"
       x="182.46999"
       y="-490.51688"
       id="text3253-8"
       sodipodi:linespacing="125%"
       transform="scale(1,-1)"><tspan
         sodipodi:role="line"
         id="tspan3255-1"
         x="182.46999"
         y="-490.51688"
         style="font-size:7.19999981px">RA</tspan></text>
<text
       xml:space="preserve"
       style="font-size:32px;font-style:normal;font-variant:normal;font-weight:normal;font-stretch:normal;line-height:125%;letter-spacing:0px;word-spacing:0px;fill:#000000;fill-opacity:1;stroke:none;font-family:Arial;-inkscape-font-specification:Arial"
       x="147.4682"
       y="-439.20068"
       id="text3253-9"
       sodipodi:linespacing="125%"
       transform="scale(1,-1)"><tspan
         sodipodi:role="line"
         id="tspan3255-12"
         x="147.4682"
         y="-439.20068"
         style="font-size:7.19999981px">nXllts</tspan></text>
<text
       xml:space="preserve"
       style="font-size:32px;font-style:normal;font-variant:normal;font-weight:normal;font-stretch:normal;line-height:125%;letter-spacing:0px;word-spacing:0px;fill:#000000;fill-opacity:1;stroke:none;font-family:Arial;-inkscape-font-specification:Arial"
       x="121.66179"
       y="-439.79395"
       id="text3253-97"
       sodipodi:linespacing="125%"
       transform="scale(1,-1)"><tspan
         sodipodi:role="line"
         id="tspan3255-5"
         x="121.66179"
         y="-439.79395"
         style="font-size:7.19999981px">syrinx</tspan></text>
<text
       xml:space="preserve"
       style="font-size:32px;font-style:normal;font-variant:normal;font-weight:normal;font-stretch:normal;line-height:125%;letter-spacing:0px;word-spacing:0px;fill:#000000;fill-opacity:1;stroke:none;font-family:Arial;-inkscape-font-specification:Arial"
       x="259.4418"
       y="-435.6412"
       id="text3253-19-0"
       sodipodi:linespacing="125%"
       transform="scale(1,-1)"><tspan
         sodipodi:role="line"
         id="tspan3255-87-4"
         x="259.4418"
         y="-435.6412"
         style="font-size:7.19999981px">Area X</tspan></text>
<g
       id="g4257"><path
         d="m 355.298,501.194 c 0,-4.749 -6.492,-8.599 -14.498,-8.599 -8.007,0 -14.498,3.85 -14.498,8.599 0,4.748 6.491,8.598 14.498,8.598 8.006,0 14.498,-3.85 14.498,-8.598 z"
         style="fill:none;stroke:#0000ff;stroke-width:0.89368403;stroke-linecap:butt;stroke-linejoin:miter;stroke-miterlimit:10;stroke-opacity:1;stroke-dasharray:none"
         id="path58"
         inkscape:connector-curvature="0" /><text
         transform="scale(1,-1)"
         sodipodi:linespacing="125%"
         id="text3253-15"
         y="-498.61655"
         x="333.04803"
         style="font-size:32px;font-style:normal;font-variant:normal;font-weight:normal;font-stretch:normal;line-height:125%;letter-spacing:0px;word-spacing:0px;fill:#000000;fill-opacity:1;stroke:none;font-family:Arial;-inkscape-font-specification:Arial"
         xml:space="preserve"><tspan
           style="font-size:7.19999981px"
           y="-498.61655"
           x="333.04803"
           id="tspan3255-9"
           sodipodi:role="line">HVC</tspan></text>
</g><g
       id="g4252"><path
         d="m 355.298,450.156 c 0,-4.749 -6.491,-8.598 -14.497,-8.598 -8.007,0 -14.499,3.849 -14.499,8.598 0,4.749 6.492,8.598 14.499,8.598 8.006,0 14.497,-3.849 14.497,-8.598 z"
         style="fill:none;stroke:#0000ff;stroke-width:0.89368403;stroke-linecap:butt;stroke-linejoin:miter;stroke-miterlimit:10;stroke-opacity:1;stroke-dasharray:none"
         id="path68"
         inkscape:connector-curvature="0" /><text
         transform="scale(1,-1)"
         sodipodi:linespacing="125%"
         id="text3253-8-6"
         y="-447.57904"
         x="335.50897"
         style="font-size:32px;font-style:normal;font-variant:normal;font-weight:normal;font-stretch:normal;line-height:125%;letter-spacing:0px;word-spacing:0px;fill:#000000;fill-opacity:1;stroke:none;font-family:Arial;-inkscape-font-specification:Arial"
         xml:space="preserve"><tspan
           style="font-size:7.19999981px"
           y="-447.57904"
           x="335.50897"
           id="tspan3255-1-7"
           sodipodi:role="line">RA</tspan></text>
</g><g
       id="g4247"><path
         d="m 355.298,422.281 c 0,-4.749 -6.492,-8.598 -14.497,-8.598 -8.007,0 -14.499,3.849 -14.499,8.598 0,4.749 6.492,8.598 14.499,8.598 8.005,0 14.497,-3.849 14.497,-8.598 z"
         style="fill:none;stroke:#0000ff;stroke-width:0.89368403;stroke-linecap:butt;stroke-linejoin:miter;stroke-miterlimit:10;stroke-opacity:1;stroke-dasharray:none"
         id="path76"
         inkscape:connector-curvature="0" /><text
         transform="scale(1,-1)"
         sodipodi:linespacing="125%"
         id="text3253-9-9"
         y="-419.80423"
         x="331.30606"
         style="font-size:32px;font-style:normal;font-variant:normal;font-weight:normal;font-stretch:normal;line-height:125%;letter-spacing:0px;word-spacing:0px;fill:#000000;fill-opacity:1;stroke:none;font-family:Arial;-inkscape-font-specification:Arial"
         xml:space="preserve"><tspan
           style="font-size:7.19999981px"
           y="-419.80423"
           x="331.30606"
           id="tspan3255-12-3"
           sodipodi:role="line">motor</tspan></text>
</g><g
       id="g4270"><path
         d="m 406.014,501.75 c 0,-4.401 -6.113,-7.974 -13.645,-7.974 -7.53,0 -13.642,3.573 -13.642,7.974 0,4.402 6.112,7.975 13.642,7.975 7.532,0 13.645,-3.573 13.645,-7.975 l 0,0"
         style="fill:#94ff7f;fill-opacity:1;fill-rule:nonzero;stroke:none"
         id="path84"
         inkscape:connector-curvature="0" /><path
         d="m 406.014,501.75 c 0,-4.401 -6.113,-7.974 -13.645,-7.974 -7.53,0 -13.642,3.573 -13.642,7.974 0,4.402 6.112,7.975 13.642,7.975 7.532,0 13.645,-3.573 13.645,-7.975 l 0,0 z"
         style="fill:none;stroke:#00ff00;stroke-width:0.819942;stroke-linecap:butt;stroke-linejoin:miter;stroke-miterlimit:10;stroke-opacity:1;stroke-dasharray:none"
         id="path86"
         inkscape:connector-curvature="0" /><text
         transform="scale(1,-1)"
         sodipodi:linespacing="125%"
         id="text3253-19-0-3"
         y="-499.2157"
         x="381.38419"
         style="font-size:32px;font-style:normal;font-variant:normal;font-weight:normal;font-stretch:normal;line-height:125%;letter-spacing:0px;word-spacing:0px;fill:#000000;fill-opacity:1;stroke:none;font-family:Arial;-inkscape-font-specification:Arial"
         xml:space="preserve"><tspan
           style="font-size:7.19999981px"
           y="-499.2157"
           x="381.38419"
           id="tspan3255-87-4-7"
           sodipodi:role="line">Area X</tspan></text>
</g><g
       id="g4276"><path
         d="m 406.014,475.262 c 0,-4.401 -6.114,-7.974 -13.645,-7.974 -7.53,0 -13.642,3.573 -13.642,7.974 0,4.402 6.112,7.975 13.642,7.975 7.531,0 13.645,-3.573 13.645,-7.975 l 0,0"
         style="fill:#94ff7f;fill-opacity:1;fill-rule:nonzero;stroke:none"
         id="path92"
         inkscape:connector-curvature="0" /><path
         d="m 406.014,475.262 c 0,-4.401 -6.114,-7.974 -13.645,-7.974 -7.53,0 -13.642,3.573 -13.642,7.974 0,4.402 6.112,7.975 13.642,7.975 7.531,0 13.645,-3.573 13.645,-7.975 l 0,0 z"
         style="fill:none;stroke:#00ff00;stroke-width:0.819942;stroke-linecap:butt;stroke-linejoin:miter;stroke-miterlimit:10;stroke-opacity:1;stroke-dasharray:none"
         id="path94"
         inkscape:connector-curvature="0" /><text
         transform="scale(1,-1)"
         sodipodi:linespacing="125%"
         id="text3253-5-8"
         y="-472.68555"
         x="384.76093"
         style="font-size:32px;font-style:normal;font-variant:normal;font-weight:normal;font-stretch:normal;line-height:125%;letter-spacing:0px;word-spacing:0px;fill:#000000;fill-opacity:1;stroke:none;font-family:Arial;-inkscape-font-specification:Arial"
         xml:space="preserve"><tspan
           style="font-size:7.19999981px"
           y="-472.68555"
           x="384.76093"
           id="tspan3255-3-5"
           sodipodi:role="line">DLM</tspan></text>
</g><g
       id="g4282"><path
         d="m 406.014,450.535 c 0,-4.402 -6.113,-7.974 -13.645,-7.974 -7.53,0 -13.642,3.572 -13.642,7.974 0,4.402 6.112,7.974 13.642,7.974 7.532,0 13.645,-3.572 13.645,-7.974 l 0,0"
         style="fill:#94ff7f;fill-opacity:1;fill-rule:nonzero;stroke:none"
         id="path88"
         inkscape:connector-curvature="0" /><path
         d="m 406.014,450.535 c 0,-4.402 -6.113,-7.974 -13.645,-7.974 -7.53,0 -13.642,3.572 -13.642,7.974 0,4.402 6.112,7.974 13.642,7.974 7.532,0 13.645,-3.572 13.645,-7.974 l 0,0 z"
         style="fill:none;stroke:#00ff00;stroke-width:0.819942;stroke-linecap:butt;stroke-linejoin:miter;stroke-miterlimit:10;stroke-opacity:1;stroke-dasharray:none"
         id="path90"
         inkscape:connector-curvature="0" /><text
         transform="scale(1,-1)"
         sodipodi:linespacing="125%"
         id="text3253-19-9"
         y="-447.95804"
         x="382.39139"
         style="font-size:32px;font-style:normal;font-variant:normal;font-weight:normal;font-stretch:normal;line-height:125%;letter-spacing:0px;word-spacing:0px;fill:#000000;fill-opacity:1;stroke:none;font-family:Arial;-inkscape-font-specification:Arial"
         xml:space="preserve"><tspan
           style="font-size:7.19999981px"
           y="-447.95804"
           x="382.39139"
           id="tspan3255-87-8"
           sodipodi:role="line">LMAN</tspan></text>
</g><text
       xml:space="preserve"
       style="font-size:32px;font-style:normal;font-variant:normal;font-weight:normal;font-stretch:normal;line-height:125%;letter-spacing:0px;word-spacing:0px;fill:#000000;fill-opacity:1;stroke:none;font-family:Arial;-inkscape-font-specification:Arial"
       x="414.17218"
       y="-499.93115"
       id="text3253-19-98"
       sodipodi:linespacing="125%"
       transform="scale(1,-1)"><tspan
         sodipodi:role="line"
         id="tspan3255-87-6"
         x="414.17218"
         y="-499.93115"
         style="font-size:7.19999981px">Basal ganglia</tspan></text>
<text
       xml:space="preserve"
       style="font-size:32px;font-style:normal;font-variant:normal;font-weight:normal;font-stretch:normal;line-height:125%;letter-spacing:0px;word-spacing:0px;fill:#000000;fill-opacity:1;stroke:none;font-family:Arial;-inkscape-font-specification:Arial"
       x="414.53076"
       y="-472.72772"
       id="text3253-19-6"
       sodipodi:linespacing="125%"
       transform="scale(1,-1)"><tspan
         sodipodi:role="line"
         id="tspan3255-87-60"
         x="414.53076"
         y="-472.72772"
         style="font-size:7.19999981px">Thalamus</tspan></text>
<text
       xml:space="preserve"
       style="font-size:32px;font-style:normal;font-variant:normal;font-weight:normal;font-stretch:normal;line-height:125%;letter-spacing:0px;word-spacing:0px;fill:#000000;fill-opacity:1;stroke:none;font-family:Arial;-inkscape-font-specification:Arial"
       x="414.34091"
       y="-447.95804"
       id="text3253-19-2"
       sodipodi:linespacing="125%"
       transform="scale(1,-1)"><tspan
         sodipodi:role="line"
         id="tspan3255-87-9"
         x="414.34091"
         y="-447.95804"
         style="font-size:7.19999981px">Cortex</tspan></text>
<g
       id="g4375"><path
         d="m 149.453,385.797 c 0,-3.769 -3.283,-6.827 -7.328,-6.827 -4.045,0 -7.327,3.058 -7.327,6.827 0,3.769 3.282,6.827 7.327,6.827 4.045,0 7.328,-3.058 7.328,-6.827 l 0,0"
         style="fill:#94ff7f;fill-opacity:1;fill-rule:nonzero;stroke:none"
         id="path42"
         inkscape:connector-curvature="0" /><path
         d="m 149.453,385.797 c 0,-3.769 -3.283,-6.827 -7.328,-6.827 -4.045,0 -7.327,3.058 -7.327,6.827 0,3.769 3.282,6.827 7.327,6.827 4.045,0 7.328,-3.058 7.328,-6.827 l 0,0 z"
         style="fill:none;stroke:#00ff00;stroke-width:0.819942;stroke-linecap:butt;stroke-linejoin:miter;stroke-miterlimit:10;stroke-opacity:1;stroke-dasharray:none"
         id="path44"
         inkscape:connector-curvature="0" /><path
         d="m 148.946,401.389 c 0,-3.651 -3.055,-6.611 -6.821,-6.611 -3.767,0 -6.821,2.96 -6.821,6.611 0,3.651 3.054,6.611 6.821,6.611 3.766,0 6.821,-2.96 6.821,-6.611 z"
         style="fill:none;stroke:#0000ff;stroke-width:0.89368403;stroke-linecap:butt;stroke-linejoin:miter;stroke-miterlimit:10;stroke-opacity:1;stroke-dasharray:none"
         id="path46"
         inkscape:connector-curvature="0" /><path
         d="m 197.362,384.677 21.117,0"
         style="fill:none;stroke:#000000;stroke-width:1.11141002;stroke-linecap:butt;stroke-linejoin:miter;stroke-miterlimit:10;stroke-opacity:1;stroke-dasharray:none"
         id="path236"
         inkscape:connector-curvature="0" /><path
         d="m 218.479,382.588 c 1.153,0 2.089,0.935 2.089,2.089 0,1.154 -0.936,2.089 -2.089,2.089 -1.155,0 -2.09,-0.935 -2.09,-2.089 0,-1.154 0.935,-2.089 2.09,-2.089"
         style="fill:#000000;fill-opacity:1;fill-rule:nonzero;stroke:none"
         id="path238"
         inkscape:connector-curvature="0" /><path
         d="m 219.034,399.681 -20.968,0"
         style="fill:none;stroke:#000000;stroke-width:1.11141002;stroke-linecap:butt;stroke-linejoin:miter;stroke-miterlimit:10;stroke-opacity:1;stroke-dasharray:none"
         id="path240"
         inkscape:connector-curvature="0" /><path
         d="m 220.734,399.681 c -1.787,0.703 -4.003,1.901 -5.377,3.171 l 1.083,-3.171 -1.083,-3.171 c 1.374,1.269 3.59,2.469 5.377,3.171"
         style="fill:#000000;fill-opacity:1;fill-rule:nonzero;stroke:none"
         id="path242"
         inkscape:connector-curvature="0" /><path
         d="m 220.734,399.681 c -1.787,0.703 -4.003,1.901 -5.377,3.171 l 1.083,-3.171 -1.083,-3.171 c 1.374,1.269 3.59,2.469 5.377,3.171 z"
         style="fill:none;stroke:#000000;stroke-width:0.55570501;stroke-linecap:butt;stroke-linejoin:miter;stroke-miterlimit:4;stroke-opacity:1;stroke-dasharray:none"
         id="path244"
         inkscape:connector-curvature="0" /><text
         transform="scale(1,-1)"
         sodipodi:linespacing="125%"
         id="text3253-19-98-8"
         y="-398.85422"
         x="152.16339"
         style="font-size:32px;font-style:normal;font-variant:normal;font-weight:normal;font-stretch:normal;line-height:125%;letter-spacing:0px;word-spacing:0px;fill:#000000;fill-opacity:1;stroke:none;font-family:Arial;-inkscape-font-specification:Arial"
         xml:space="preserve"><tspan
           style="font-size:7.19999981px"
           y="-398.85422"
           x="152.16339"
           id="tspan3255-87-6-5"
           sodipodi:role="line">Premotor</tspan></text>
<text
         transform="scale(1,-1)"
         sodipodi:linespacing="125%"
         id="text3253-19-98-0"
         y="-383.22003"
         x="152.7294"
         style="font-size:32px;font-style:normal;font-variant:normal;font-weight:normal;font-stretch:normal;line-height:125%;letter-spacing:0px;word-spacing:0px;fill:#000000;fill-opacity:1;stroke:none;font-family:Arial;-inkscape-font-specification:Arial"
         xml:space="preserve"><tspan
           style="font-size:7.19999981px"
           y="-383.22003"
           x="152.7294"
           id="tspan3255-87-6-1"
           sodipodi:role="line">AFP</tspan></text>
<text
         transform="scale(1,-1)"
         sodipodi:linespacing="125%"
         id="text3253-19-98-82"
         y="-397.74734"
         x="226.38258"
         style="font-size:32px;font-style:normal;font-variant:normal;font-weight:normal;font-stretch:normal;line-height:125%;letter-spacing:0px;word-spacing:0px;fill:#000000;fill-opacity:1;stroke:none;font-family:Arial;-inkscape-font-specification:Arial"
         xml:space="preserve"><tspan
           style="font-size:7.19999981px"
           y="-397.74734"
           x="226.38258"
           id="tspan3255-87-6-9"
           sodipodi:role="line">Excitatory</tspan></text>
<text
         transform="scale(1,-1)"
         sodipodi:linespacing="125%"
         id="text3253-19-98-5"
         y="-382.53873"
         x="226.28062"
         style="font-size:32px;font-style:normal;font-variant:normal;font-weight:normal;font-stretch:normal;line-height:125%;letter-spacing:0px;word-spacing:0px;fill:#000000;fill-opacity:1;stroke:none;font-family:Arial;-inkscape-font-specification:Arial"
         xml:space="preserve"><tspan
           style="font-size:7.19999981px"
           y="-382.53873"
           x="226.28062"
           id="tspan3255-87-6-2"
           sodipodi:role="line">Inhibitory</tspan></text>
</g><g
       id="g4489"
       transform="translate(0,-1.5799605)"><text
         transform="scale(1,-1)"
         xml:space="preserve"
         style="font-size:32px;font-style:normal;font-variant:normal;font-weight:normal;font-stretch:normal;line-height:110.00000238%;letter-spacing:0px;word-spacing:0px;fill:#000000;fill-opacity:1;stroke:none;font-family:Arial;-inkscape-font-specification:Arial"
         x="341.30237"
         y="-397.18011"
         id="text3253-9-9-5"
         sodipodi:linespacing="110%"><tspan
           sodipodi:role="line"
           id="tspan3255-12-3-6"
           x="341.30237"
           y="-397.18011"
           style="font-size:7.19999981px;text-align:center;line-height:110.00000238%;text-anchor:middle;fill:#0000ff;fill-opacity:1">Song</tspan><tspan
           id="tspan4459"
           sodipodi:role="line"
           x="341.30237"
           y="-389.2601"
           style="font-size:7.19999981px;text-align:center;line-height:110.00000238%;text-anchor:middle;fill:#0000ff;fill-opacity:1">production</tspan></text>
<text
         transform="scale(1,-1)"
         xml:space="preserve"
         style="font-size:32px;font-style:normal;font-variant:normal;font-weight:normal;font-stretch:normal;line-height:110.00000238%;letter-spacing:0px;word-spacing:0px;fill:#000000;fill-opacity:1;stroke:none;font-family:Arial;-inkscape-font-specification:Arial"
         x="394.31247"
         y="-397.18011"
         id="text3253-9-9-5-9"
         sodipodi:linespacing="110%"><tspan
           id="tspan4459-2"
           sodipodi:role="line"
           x="394.31247"
           y="-397.18011"
           style="font-size:7.19999981px;text-align:center;line-height:110.00000238%;text-anchor:middle;fill:#00aa00;fill-opacity:1">Song</tspan><tspan
           id="tspan4487"
           sodipodi:role="line"
           x="394.31247"
           y="-389.2601"
           style="font-size:7.19999981px;text-align:center;line-height:110.00000238%;text-anchor:middle;fill:#00aa00;fill-opacity:1">learning</tspan></text>
</g></g></svg>