<?xml version="1.0" encoding="UTF-8" standalone="no"?>
<!DOCTYPE svg PUBLIC "-//W3C//DTD SVG 1.1//EN"
 "http://www.w3.org/Graphics/SVG/1.1/DTD/svg11.dtd">
<!-- Generated by graphviz version 2.26.3 (20100126.1600)
 -->
<!-- Title: recognition Pages: 1 -->
<svg width="870pt" height="58pt"
 viewBox="0.00 0.00 870.00 58.00" xmlns="http://www.w3.org/2000/svg" xmlns:xlink="http://www.w3.org/1999/xlink">
<g id="graph1" class="graph" transform="scale(1 1) rotate(0) translate(4 54)">
<title>recognition</title>
<!-- Audio -->
<g id="node1" class="node"><title>Audio</title>
<polygon fill="#decbe4" stroke="#decbe4" stroke-width="0" points="42,-36 12,-36 1.42109e-14,-24 7.10543e-15,-12 12,-1.46056e-14 42,-6.71068e-15 54,-12 54,-24 42,-36"/>
<path fill="#decbe4" stroke="#decbe4" stroke-width="0" d="M12,-36C6,-36 1.77636e-14,-30 1.42109e-14,-24"/>
<path fill="#decbe4" stroke="#decbe4" stroke-width="0" d="M7.10543e-15,-12C3.55271e-15,-6 6,-1.61846e-14 12,-1.46056e-14"/>
<path fill="#decbe4" stroke="#decbe4" stroke-width="0" d="M42,-6.71068e-15C48,-5.1317e-15 54,-6 54,-12"/>
<path fill="#decbe4" stroke="#decbe4" stroke-width="0" d="M54,-24C54,-30 48,-36 42,-36"/>
<polyline fill="none" stroke="#decbe4" stroke-width="0" points="42,-36 12,-36 "/>
<path fill="none" stroke="#decbe4" stroke-width="0" d="M12,-36C6,-36 1.77636e-14,-30 1.42109e-14,-24"/>
<polyline fill="none" stroke="#decbe4" stroke-width="0" points="1.42109e-14,-24 7.10543e-15,-12 "/>
<path fill="none" stroke="#decbe4" stroke-width="0" d="M7.10543e-15,-12C3.55271e-15,-6 6,-1.61846e-14 12,-1.46056e-14"/>
<polyline fill="none" stroke="#decbe4" stroke-width="0" points="12,-1.46056e-14 42,-6.71068e-15 "/>
<path fill="none" stroke="#decbe4" stroke-width="0" d="M42,-6.71068e-15C48,-5.1317e-15 54,-6 54,-12"/>
<polyline fill="none" stroke="#decbe4" stroke-width="0" points="54,-12 54,-24 "/>
<path fill="none" stroke="#decbe4" stroke-width="0" d="M54,-24C54,-30 48,-36 42,-36"/>
<text text-anchor="middle" x="27" y="-13.4" font-family="Arial" font-size="14.00">Audio</text>
</g>
<!-- Frame -->
<g id="node3" class="node"><title>Frame</title>
<polygon fill="#decbe4" stroke="#decbe4" stroke-width="0" points="203,-36 169,-36 157,-24 157,-12 169,-1.48234e-14 203,-6.49289e-15 215,-12 215,-24 203,-36"/>
<path fill="#decbe4" stroke="#decbe4" stroke-width="0" d="M169,-36C163,-36 157,-30 157,-24"/>
<path fill="#decbe4" stroke="#decbe4" stroke-width="0" d="M157,-12C157,-6 163,-1.62935e-14 169,-1.48234e-14"/>
<path fill="#decbe4" stroke="#decbe4" stroke-width="0" d="M203,-6.49289e-15C209,-5.0228e-15 215,-6 215,-12"/>
<path fill="#decbe4" stroke="#decbe4" stroke-width="0" d="M215,-24C215,-30 209,-36 203,-36"/>
<polyline fill="none" stroke="#decbe4" stroke-width="0" points="203,-36 169,-36 "/>
<path fill="none" stroke="#decbe4" stroke-width="0" d="M169,-36C163,-36 157,-30 157,-24"/>
<polyline fill="none" stroke="#decbe4" stroke-width="0" points="157,-24 157,-12 "/>
<path fill="none" stroke="#decbe4" stroke-width="0" d="M157,-12C157,-6 163,-1.62935e-14 169,-1.48234e-14"/>
<polyline fill="none" stroke="#decbe4" stroke-width="0" points="169,-1.48234e-14 203,-6.49289e-15 "/>
<path fill="none" stroke="#decbe4" stroke-width="0" d="M203,-6.49289e-15C209,-5.0228e-15 215,-6 215,-12"/>
<polyline fill="none" stroke="#decbe4" stroke-width="0" points="215,-12 215,-24 "/>
<path fill="none" stroke="#decbe4" stroke-width="0" d="M215,-24C215,-30 209,-36 203,-36"/>
<text text-anchor="middle" x="186" y="-13.4" font-family="Arial" font-size="14.00">Frame</text>
</g>
<!-- Audio&#45;&gt;Frame -->
<g id="edge2" class="edge"><title>Audio&#45;&gt;Frame</title>
<path fill="none" stroke="black" d="M54.3331,-18C79.6382,-18 117.568,-18 146.228,-18"/>
<polygon fill="black" stroke="black" points="146.326,-21.5001 156.326,-18 146.326,-14.5001 146.326,-21.5001"/>
<text text-anchor="middle" x="105" y="-37.4" font-family="Arial" font-size="14.00">Feature</text>
<text text-anchor="middle" x="105" y="-21.4" font-family="Arial" font-size="14.00">Extraction</text>
</g>
<!-- State -->
<g id="node5" class="node"><title>State</title>
<polygon fill="#decbe4" stroke="#decbe4" stroke-width="0" points="350,-36 320,-36 308,-24 308,-12 320,-1.46056e-14 350,-6.71068e-15 362,-12 362,-24 350,-36"/>
<path fill="#decbe4" stroke="#decbe4" stroke-width="0" d="M320,-36C314,-36 308,-30 308,-24"/>
<path fill="#decbe4" stroke="#decbe4" stroke-width="0" d="M308,-12C308,-6 314,-1.61846e-14 320,-1.46056e-14"/>
<path fill="#decbe4" stroke="#decbe4" stroke-width="0" d="M350,-6.71068e-15C356,-5.1317e-15 362,-6 362,-12"/>
<path fill="#decbe4" stroke="#decbe4" stroke-width="0" d="M362,-24C362,-30 356,-36 350,-36"/>
<polyline fill="none" stroke="#decbe4" stroke-width="0" points="350,-36 320,-36 "/>
<path fill="none" stroke="#decbe4" stroke-width="0" d="M320,-36C314,-36 308,-30 308,-24"/>
<polyline fill="none" stroke="#decbe4" stroke-width="0" points="308,-24 308,-12 "/>
<path fill="none" stroke="#decbe4" stroke-width="0" d="M308,-12C308,-6 314,-1.61846e-14 320,-1.46056e-14"/>
<polyline fill="none" stroke="#decbe4" stroke-width="0" points="320,-1.46056e-14 350,-6.71068e-15 "/>
<path fill="none" stroke="#decbe4" stroke-width="0" d="M350,-6.71068e-15C356,-5.1317e-15 362,-6 362,-12"/>
<polyline fill="none" stroke="#decbe4" stroke-width="0" points="362,-12 362,-24 "/>
<path fill="none" stroke="#decbe4" stroke-width="0" d="M362,-24C362,-30 356,-36 350,-36"/>
<text text-anchor="middle" x="335" y="-13.4" font-family="Arial" font-size="14.00">State</text>
</g>
<!-- Frame&#45;&gt;State -->
<g id="edge4" class="edge"><title>Frame&#45;&gt;State</title>
<path fill="none" stroke="black" d="M215.794,-18C239.276,-18 272.161,-18 297.445,-18"/>
<polygon fill="black" stroke="black" points="297.766,-21.5001 307.766,-18 297.766,-14.5001 297.766,-21.5001"/>
<text text-anchor="middle" x="262" y="-37.4" font-family="Arial" font-size="14.00">Acoustic</text>
<text text-anchor="middle" x="262" y="-21.4" font-family="Arial" font-size="14.00">Model</text>
</g>
<!-- Phoneme -->
<g id="node7" class="node"><title>Phoneme</title>
<polygon fill="#decbe4" stroke="#decbe4" stroke-width="0" points="524,-36 468,-36 456,-24 456,-12 468,-1.56319e-14 524,-5.68434e-15 536,-12 536,-24 524,-36"/>
<path fill="#decbe4" stroke="#decbe4" stroke-width="0" d="M468,-36C462,-36 456,-30 456,-24"/>
<path fill="#decbe4" stroke="#decbe4" stroke-width="0" d="M456,-12C456,-6 462,-1.66978e-14 468,-1.56319e-14"/>
<path fill="#decbe4" stroke="#decbe4" stroke-width="0" d="M524,-5.68434e-15C530,-4.61853e-15 536,-6 536,-12"/>
<path fill="#decbe4" stroke="#decbe4" stroke-width="0" d="M536,-24C536,-30 530,-36 524,-36"/>
<polyline fill="none" stroke="#decbe4" stroke-width="0" points="524,-36 468,-36 "/>
<path fill="none" stroke="#decbe4" stroke-width="0" d="M468,-36C462,-36 456,-30 456,-24"/>
<polyline fill="none" stroke="#decbe4" stroke-width="0" points="456,-24 456,-12 "/>
<path fill="none" stroke="#decbe4" stroke-width="0" d="M456,-12C456,-6 462,-1.66978e-14 468,-1.56319e-14"/>
<polyline fill="none" stroke="#decbe4" stroke-width="0" points="468,-1.56319e-14 524,-5.68434e-15 "/>
<path fill="none" stroke="#decbe4" stroke-width="0" d="M524,-5.68434e-15C530,-4.61853e-15 536,-6 536,-12"/>
<polyline fill="none" stroke="#decbe4" stroke-width="0" points="536,-12 536,-24 "/>
<path fill="none" stroke="#decbe4" stroke-width="0" d="M536,-24C536,-30 530,-36 524,-36"/>
<text text-anchor="middle" x="496" y="-13.4" font-family="Arial" font-size="14.00">Phoneme</text>
</g>
<!-- State&#45;&gt;Phoneme -->
<g id="edge6" class="edge"><title>State&#45;&gt;Phoneme</title>
<path fill="none" stroke="black" d="M362.311,-18C385.063,-18 418.075,-18 445.601,-18"/>
<polygon fill="black" stroke="black" points="445.85,-21.5001 455.85,-18 445.85,-14.5001 445.85,-21.5001"/>
<text text-anchor="middle" x="409" y="-37.4" font-family="Arial" font-size="14.00">Decision</text>
<text text-anchor="middle" x="409" y="-21.4" font-family="Arial" font-size="14.00">Trees</text>
</g>
<!-- Word -->
<g id="node9" class="node"><title>Word</title>
<polygon fill="#decbe4" stroke="#decbe4" stroke-width="0" points="666,-36 636,-36 624,-24 624,-12 636,-1.46056e-14 666,-6.71068e-15 678,-12 678,-24 666,-36"/>
<path fill="#decbe4" stroke="#decbe4" stroke-width="0" d="M636,-36C630,-36 624,-30 624,-24"/>
<path fill="#decbe4" stroke="#decbe4" stroke-width="0" d="M624,-12C624,-6 630,-1.61846e-14 636,-1.46056e-14"/>
<path fill="#decbe4" stroke="#decbe4" stroke-width="0" d="M666,-6.71068e-15C672,-5.1317e-15 678,-6 678,-12"/>
<path fill="#decbe4" stroke="#decbe4" stroke-width="0" d="M678,-24C678,-30 672,-36 666,-36"/>
<polyline fill="none" stroke="#decbe4" stroke-width="0" points="666,-36 636,-36 "/>
<path fill="none" stroke="#decbe4" stroke-width="0" d="M636,-36C630,-36 624,-30 624,-24"/>
<polyline fill="none" stroke="#decbe4" stroke-width="0" points="624,-24 624,-12 "/>
<path fill="none" stroke="#decbe4" stroke-width="0" d="M624,-12C624,-6 630,-1.61846e-14 636,-1.46056e-14"/>
<polyline fill="none" stroke="#decbe4" stroke-width="0" points="636,-1.46056e-14 666,-6.71068e-15 "/>
<path fill="none" stroke="#decbe4" stroke-width="0" d="M666,-6.71068e-15C672,-5.1317e-15 678,-6 678,-12"/>
<polyline fill="none" stroke="#decbe4" stroke-width="0" points="678,-12 678,-24 "/>
<path fill="none" stroke="#decbe4" stroke-width="0" d="M678,-24C678,-30 672,-36 666,-36"/>
<text text-anchor="middle" x="651" y="-13.4" font-family="Arial" font-size="14.00">Word</text>
</g>
<!-- Phoneme&#45;&gt;Word -->
<g id="edge8" class="edge"><title>Phoneme&#45;&gt;Word</title>
<path fill="none" stroke="black" d="M536.32,-18C560.122,-18 590.057,-18 613.373,-18"/>
<polygon fill="black" stroke="black" points="613.575,-21.5001 623.575,-18 613.575,-14.5001 613.575,-21.5001"/>
<text text-anchor="middle" x="580" y="-21.4" font-family="Arial" font-size="14.00">Lexicon</text>
</g>
<!-- Sentence -->
<g id="node11" class="node"><title>Sentence</title>
<polygon fill="#decbe4" stroke="#decbe4" stroke-width="0" points="849,-36 795,-36 783,-24 783,-12 795,-1.55773e-14 849,-5.739e-15 861,-12 861,-24 849,-36"/>
<path fill="#decbe4" stroke="#decbe4" stroke-width="0" d="M795,-36C789,-36 783,-30 783,-24"/>
<path fill="#decbe4" stroke="#decbe4" stroke-width="0" d="M783,-12C783,-6 789,-1.66704e-14 795,-1.55773e-14"/>
<path fill="#decbe4" stroke="#decbe4" stroke-width="0" d="M849,-5.739e-15C855,-4.64586e-15 861,-6 861,-12"/>
<path fill="#decbe4" stroke="#decbe4" stroke-width="0" d="M861,-24C861,-30 855,-36 849,-36"/>
<polyline fill="none" stroke="#decbe4" stroke-width="0" points="849,-36 795,-36 "/>
<path fill="none" stroke="#decbe4" stroke-width="0" d="M795,-36C789,-36 783,-30 783,-24"/>
<polyline fill="none" stroke="#decbe4" stroke-width="0" points="783,-24 783,-12 "/>
<path fill="none" stroke="#decbe4" stroke-width="0" d="M783,-12C783,-6 789,-1.66704e-14 795,-1.55773e-14"/>
<polyline fill="none" stroke="#decbe4" stroke-width="0" points="795,-1.55773e-14 849,-5.739e-15 "/>
<path fill="none" stroke="#decbe4" stroke-width="0" d="M849,-5.739e-15C855,-4.64586e-15 861,-6 861,-12"/>
<polyline fill="none" stroke="#decbe4" stroke-width="0" points="861,-12 861,-24 "/>
<path fill="none" stroke="#decbe4" stroke-width="0" d="M861,-24C861,-30 855,-36 849,-36"/>
<text text-anchor="middle" x="822" y="-13.4" font-family="Arial" font-size="14.00">Sentence</text>
</g>
<!-- Word&#45;&gt;Sentence -->
<g id="edge10" class="edge"><title>Word&#45;&gt;Sentence</title>
<path fill="none" stroke="black" d="M678.095,-18C703.309,-18 741.503,-18 772.208,-18"/>
<polygon fill="black" stroke="black" points="772.304,-21.5001 782.304,-18 772.304,-14.5001 772.304,-21.5001"/>
<text text-anchor="middle" x="730" y="-37.4" font-family="Arial" font-size="14.00">Language</text>
<text text-anchor="middle" x="730" y="-21.4" font-family="Arial" font-size="14.00">Model</text>
</g>
</g>
</svg>
